<?xml version="1.0" encoding="UTF-8"?>
<!-- Generated by Pixelmator Pro 2.4.2 -->
<svg width="1024" height="768" viewBox="0 0 1024 768" xmlns="http://www.w3.org/2000/svg" xmlns:xlink="http://www.w3.org/1999/xlink">
    <linearGradient id="linearGradient1" x1="425.131462" y1="309.655881" x2="562.868538" y2="496.344119" gradientUnits="userSpaceOnUse">
        <stop offset="0.000463" stop-color="#faf9f9" stop-opacity="1"/>
        <stop offset="0.998778" stop-color="#bee3db" stop-opacity="1"/>
    </linearGradient>
    <path id="Ellipse-copy-3" fill="url(#linearGradient1)" fill-rule="evenodd" stroke="none" d="M 610 403 C 610 338.934967 558.065063 287 494 287 C 429.934967 287 378 338.934967 378 403 C 378 467.065033 429.934967 519 494 519 C 558.065063 519 610 467.065033 610 403 Z"/>
    <path id="Ellipse-copy-2" fill="#ffffff" fill-rule="evenodd" stroke="none" d="M 598 403 C 598 345.562378 551.437622 299 494 299 C 436.562378 299 390 345.562378 390 403 C 390 460.437622 436.562378 507 494 507 C 551.437622 507 598 460.437622 598 403 Z"/>
    <linearGradient id="linearGradient2" x1="436.411654" y1="324.945004" x2="551.588346" y2="481.054996" gradientUnits="userSpaceOnUse">
        <stop offset="0.000463" stop-color="#faf9f9" stop-opacity="1"/>
        <stop offset="0.998778" stop-color="#bee3db" stop-opacity="1"/>
    </linearGradient>
    <path id="Ellipse" fill="url(#linearGradient2)" fill-rule="evenodd" stroke="none" d="M 591 403 C 591 349.428375 547.571655 306 494 306 C 440.428375 306 397 349.428375 397 403 C 397 456.571625 440.428375 500 494 500 C 547.571655 500 591 456.571625 591 403 Z"/>
    <path id="Ellipse-copy" fill="#ffffff" fill-rule="evenodd" stroke="none" d="M 514 405.5 C 514 394.178162 504.821838 385 493.5 385 C 482.178162 385 473 394.178162 473 405.5 C 473 416.821838 482.178162 426 493.5 426 C 504.821838 426 514 416.821838 514 405.5 Z"/>
    <linearGradient id="linearGradient3" x1="481.329267" y1="219.003841" x2="505.670733" y2="251.996159" gradientUnits="userSpaceOnUse">
        <stop offset="0.000463" stop-color="#faf9f9" stop-opacity="1"/>
        <stop offset="0.998778" stop-color="#bee3db" stop-opacity="1"/>
    </linearGradient>
    <path id="Ellipse-copy-4" fill="url(#linearGradient3)" fill-rule="evenodd" stroke="none" d="M 514 235.5 C 514 224.178162 504.821838 215 493.5 215 C 482.178162 215 473 224.178162 473 235.5 C 473 246.821838 482.178162 256 493.5 256 C 504.821838 256 514 246.821838 514 235.5 Z"/>
    <linearGradient id="linearGradient4" x1="481.329267" y1="558.003841" x2="505.670733" y2="590.996159" gradientUnits="userSpaceOnUse">
        <stop offset="0.000463" stop-color="#faf9f9" stop-opacity="1"/>
        <stop offset="0.998778" stop-color="#bee3db" stop-opacity="1"/>
    </linearGradient>
    <path id="Ellipse-copy-5" fill="url(#linearGradient4)" fill-rule="evenodd" stroke="none" d="M 514 574.5 C 514 563.178162 504.821838 554 493.5 554 C 482.178162 554 473 563.178162 473 574.5 C 473 585.821838 482.178162 595 493.5 595 C 504.821838 595 514 585.821838 514 574.5 Z"/>
    <linearGradient id="linearGradient5" x1="710.329267" y1="389.003841" x2="734.670733" y2="421.996159" gradientUnits="userSpaceOnUse">
        <stop offset="0.000463" stop-color="#faf9f9" stop-opacity="1"/>
        <stop offset="0.998778" stop-color="#bee3db" stop-opacity="1"/>
    </linearGradient>
    <path id="Ellipse-copy-6" fill="url(#linearGradient5)" fill-rule="evenodd" stroke="none" d="M 743 405.5 C 743 394.178162 733.821838 385 722.5 385 C 711.178162 385 702 394.178162 702 405.5 C 702 416.821838 711.178162 426 722.5 426 C 733.821838 426 743 416.821838 743 405.5 Z"/>
    <linearGradient id="linearGradient6" x1="252.329267" y1="389.003841" x2="276.670733" y2="421.996159" gradientUnits="userSpaceOnUse">
        <stop offset="0.000463" stop-color="#faf9f9" stop-opacity="1"/>
        <stop offset="0.998778" stop-color="#bee3db" stop-opacity="1"/>
    </linearGradient>
    <path id="Ellipse-copy-7" fill="url(#linearGradient6)" fill-rule="evenodd" stroke="none" d="M 285 405.5 C 285 394.178162 275.821838 385 264.5 385 C 253.178162 385 244 394.178162 244 405.5 C 244 416.821838 253.178162 426 264.5 426 C 275.821838 426 285 416.821838 285 405.5 Z"/>
</svg>
